<?xml version="1.0" standalone="no"?>
<!DOCTYPE svg PUBLIC "-//W3C//DTD SVG 20010904//EN"
 "http://www.w3.org/TR/2001/REC-SVG-20010904/DTD/svg10.dtd">
<svg version="1.0" xmlns="http://www.w3.org/2000/svg"
 width="200.000000pt" height="200.000000pt" viewBox="0 0 200.000000 200.000000"
 preserveAspectRatio="xMidYMid meet">
<metadata>
Created by potrace 1.11, written by Peter Selinger 2001-2013
</metadata>
<g transform="translate(0.000000,200.000000) scale(0.100000,-0.100000)"
fill="#000000" stroke="none">
<path d="M722 1525 c-54 -24 -78 -57 -49 -68 7 -3 5 -6 -5 -6 -24 -1 -38 -32
-37 -78 1 -34 2 -35 8 -12 15 48 33 71 66 85 58 24 62 21 68 -58 5 -70 4 -74
-21 -95 -15 -12 -22 -23 -17 -23 6 0 3 -5 -5 -11 -13 -9 -13 -10 1 -6 9 3 21
1 27 -5 16 -16 40 -3 44 23 5 38 26 33 37 -8 17 -63 11 -103 -16 -114 -12 -4
-23 -16 -23 -26 0 -13 3 -14 12 -5 18 18 38 15 58 -10 19 -25 11 -61 -13 -53
-19 7 -77 14 -77 9 0 -2 14 -11 30 -19 37 -19 70 -79 52 -97 -9 -9 -18 -9 -38
1 -24 11 -26 10 -14 -3 11 -14 8 -15 -21 -10 -19 4 -36 8 -37 10 -2 1 2 18 9
38 15 43 -3 121 -26 112 -9 -3 -12 0 -9 9 8 19 -5 37 -19 28 -22 -14 -39 -13
-28 1 8 10 5 13 -12 12 -12 -1 -28 -5 -34 -9 -7 -5 -13 -5 -13 -1 0 4 -8 0
-17 -9 -10 -8 -52 -27 -93 -41 -41 -15 -81 -34 -89 -44 -9 -12 -15 -13 -18 -4
-3 6 -11 12 -19 12 -7 0 -11 -6 -8 -14 4 -10 -5 -14 -33 -14 -74 -1 -112 -29
-81 -60 9 -9 9 -12 -1 -12 -7 0 -15 9 -18 20 -4 16 -9 18 -24 9 -11 -5 -27 -9
-37 -7 -10 2 -16 -3 -14 -10 1 -8 -2 -11 -7 -8 -5 3 -22 -1 -37 -9 -16 -8 -36
-15 -45 -15 -9 0 -21 -11 -29 -24 -7 -13 -21 -27 -31 -29 -18 -5 -19 -20 -19
-366 1 -219 5 -363 10 -366 6 -4 10 -12 10 -18 0 -9 -2 -9 -8 0 -4 7 -9 -19
-10 -57 l-3 -70 166 0 c108 0 164 3 160 10 -3 6 -1 10 4 10 6 0 11 -4 11 -9 0
-5 58 -9 129 -10 145 0 150 2 131 69 -6 19 -10 47 -10 62 0 16 -6 28 -12 28
-8 1 -6 6 4 14 10 7 15 16 11 20 -4 4 -2 10 4 14 6 4 14 25 17 47 5 35 4 38
-8 23 -16 -22 -26 -23 -26 -2 0 8 4 13 9 10 12 -8 28 14 33 44 2 20 11 27 46
34 23 5 45 6 49 3 3 -4 -6 -37 -20 -75 -33 -82 -35 -156 -8 -205 11 -19 21
-45 23 -58 l3 -24 453 -2 c311 -1 452 1 452 9 0 5 -7 8 -15 4 -10 -4 -15 1
-15 14 0 11 -5 20 -11 20 -6 0 -9 -7 -6 -14 4 -10 1 -13 -9 -9 -11 4 -12 9 -3
19 8 10 8 23 -4 52 -10 25 -12 44 -6 53 7 11 9 11 9 -3 0 -10 5 -18 10 -18 6
0 10 -5 10 -11 0 -5 -4 -7 -10 -4 -5 3 -10 2 -10 -3 0 -6 7 -13 16 -16 8 -3
13 -10 9 -15 -3 -5 0 -13 6 -17 7 -4 9 -3 6 3 -4 6 0 14 9 17 23 9 24 9 25
-26 1 -24 3 -27 6 -10 4 18 7 20 17 9 8 -7 17 -23 20 -35 9 -26 23 -29 29 -5
4 17 5 17 6 1 1 -16 15 -18 146 -18 l146 0 -2 182 c-1 101 -4 177 -6 171 -3
-7 -11 -13 -18 -13 -7 0 -16 -6 -18 -12 -4 -10 -6 -10 -6 0 -1 7 6 15 14 18 8
4 15 12 15 20 0 8 5 14 10 14 7 0 10 30 9 80 -1 44 -5 80 -9 80 -14 0 -18 -24
-8 -43 5 -10 7 -21 4 -24 -3 -3 -8 2 -12 11 -6 15 -8 15 -23 2 -10 -9 -26 -13
-39 -9 -25 6 -29 18 -7 27 9 3 15 0 15 -9 0 -8 3 -15 6 -15 10 0 43 41 49 61
4 11 11 19 16 19 5 0 9 7 9 15 0 8 -4 15 -10 15 -5 0 -10 5 -10 11 0 5 5 7 10
4 7 -4 10 48 10 149 0 139 -2 155 -17 159 -16 4 -16 5 -1 6 13 1 17 10 16 41
0 39 -1 40 -19 24 -25 -22 -24 -7 1 31 24 36 26 57 5 49 -8 -4 -14 -9 -12 -13
1 -3 -12 -20 -30 -37 l-32 -31 -10 29 c-10 29 -31 31 -31 3 0 -7 -6 -15 -12
-18 -10 -4 -10 -7 0 -18 10 -11 12 -11 12 2 1 10 3 9 11 -4 6 -9 14 -15 20
-12 5 4 9 1 9 -5 0 -7 -8 -9 -21 -5 -15 5 -19 4 -15 -4 4 -7 -1 -11 -13 -11
-17 0 -21 6 -21 31 l0 32 -25 -27 c-13 -14 -27 -26 -30 -25 -3 1 -16 -2 -28
-5 -18 -5 -19 -8 -7 -15 8 -5 18 -7 23 -4 5 3 3 -4 -5 -16 -7 -12 -20 -20 -28
-18 -9 1 -20 -9 -27 -25 -12 -27 -33 -38 -33 -18 0 6 -16 46 -36 89 l-35 78
15 58 c8 32 21 62 29 67 9 4 13 18 10 35 -7 49 -9 93 -3 93 3 0 11 -13 17 -30
6 -16 7 -30 2 -30 -4 0 -6 -6 -3 -13 2 -7 13 -13 23 -13 15 0 17 4 10 18 -10
19 5 54 28 62 14 6 16 -4 13 -41 -1 -13 3 -23 8 -23 11 0 26 69 18 78 -3 3 -6
-3 -7 -14 0 -15 -2 -14 -11 6 -15 38 -16 54 -4 63 7 6 6 7 -4 4 -8 -2 -17 -14
-18 -28 -2 -13 -8 -28 -13 -34 -7 -7 -8 -4 -4 6 4 10 0 23 -8 30 -12 12 -11
16 9 32 13 10 24 27 24 38 0 10 5 19 10 19 6 0 10 5 10 10 0 6 -17 2 -39 -9
-21 -11 -41 -17 -45 -14 -3 4 -6 1 -6 -5 0 -7 -17 -12 -42 -12 -23 0 -69 -7
-102 -14 -34 -8 -126 -27 -206 -41 -80 -15 -167 -33 -194 -41 -27 -9 -63 -17
-80 -19 -30 -4 -33 -2 -45 40 -7 24 -19 49 -26 55 -7 6 -16 23 -20 38 -13 55
-45 91 -107 121 -69 35 -79 36 -126 16z m955 -230 c-4 -8 -11 -15 -17 -15 -6
0 -6 7 2 20 14 22 24 19 15 -5z m-130 -270 c-16 -11 -16 -13 -2 -19 9 -3 13
-2 10 4 -3 6 -1 10 4 10 13 0 13 -3 5 -24 -3 -9 -10 -13 -15 -10 -5 3 -9 1 -9
-5 0 -5 5 -13 10 -16 6 -4 8 -11 5 -16 -3 -5 1 -6 9 -3 9 3 17 -3 21 -17 6
-17 9 -19 16 -8 5 9 9 10 9 2 0 -6 3 -18 6 -27 4 -11 1 -16 -11 -16 -10 0 -13
5 -9 12 5 7 3 8 -6 3 -10 -6 -9 -11 5 -21 15 -12 17 -18 7 -39 -12 -25 -36
-33 -47 -15 -3 5 -20 6 -38 3 l-32 -6 18 27 c10 14 15 31 12 36 -3 6 -2 10 4
10 15 0 32 36 25 54 -4 11 -14 14 -29 10 -17 -4 -24 -1 -27 11 -3 15 -5 15
-28 -2 -30 -23 -60 -35 -60 -24 0 4 11 13 25 19 14 7 31 17 38 22 36 31 93 68
97 63 3 -2 -3 -10 -13 -18z m-1158 -107 c1 -5 -3 -8 -9 -8 -5 0 -10 12 -9 28
0 24 1 25 9 7 5 -11 9 -23 9 -27z m1591 38 c0 -2 -7 -9 -15 -16 -12 -10 -15
-10 -15 4 0 9 7 16 15 16 8 0 15 -2 15 -4z m-1763 -12 c-3 -3 -12 -4 -19 -1
-8 3 -5 6 6 6 11 1 17 -2 13 -5z m1230 -20 c-3 -3 -12 -4 -19 -1 -8 3 -5 6 6
6 11 1 17 -2 13 -5z m-1210 -10 c-3 -3 -12 -4 -19 -1 -8 3 -5 6 6 6 11 1 17
-2 13 -5z m1673 -5 c0 -5 5 -7 12 -3 7 4 8 3 4 -5 -6 -9 -11 -9 -22 0 -17 14
-18 19 -4 19 6 0 10 -5 10 -11z m-1557 -19 c-3 -11 -9 -17 -15 -14 -5 3 -4 12
3 20 16 19 18 18 12 -6z m1607 0 c0 -5 -4 -10 -10 -10 -5 0 -10 5 -10 10 0 6
5 10 10 10 6 0 10 -4 10 -10z m-1307 -31 c5 -4 6 -12 2 -19 -5 -8 -12 -6 -27
6 -16 16 -21 16 -28 4 -8 -13 -10 -13 -10 0 0 18 43 40 49 25 2 -5 8 -13 14
-16z m1304 5 c-3 -3 -12 -4 -19 -1 -8 3 -5 6 6 6 11 1 17 -2 13 -5z m-1567
-25 c0 -6 -4 -7 -10 -4 -5 3 -10 11 -10 16 0 6 5 7 10 4 6 -3 10 -11 10 -16z
m1057 6 c0 -8 -4 -12 -9 -9 -5 3 -6 10 -3 15 9 13 12 11 12 -6z m-1117 -20
c11 -13 10 -14 -4 -9 -9 3 -16 10 -16 15 0 13 6 11 20 -6z m-55 -35 c3 -6 -1
-7 -9 -4 -18 7 -21 14 -7 14 6 0 13 -4 16 -10z m245 -54 c0 -3 -4 -8 -10 -11
-5 -3 -10 -1 -10 4 0 6 5 11 10 11 6 0 10 -2 10 -4z m35 -18 c4 -14 8 -18 12
-10 2 6 11 12 19 12 16 0 19 -36 4 -45 -6 -4 -7 -12 -3 -18 10 -17 4 -137 -8
-160 -9 -15 -13 -16 -27 -5 -13 11 -14 11 -8 0 5 -9 0 -21 -13 -33 -11 -11
-24 -31 -27 -44 -3 -14 -10 -25 -16 -25 -5 0 -6 5 -3 10 3 6 1 10 -4 10 -16 0
-13 -51 4 -70 13 -14 13 -17 0 -17 -8 0 -12 4 -9 8 2 4 -5 13 -16 19 -13 7
-20 7 -20 0 0 -5 -5 -10 -11 -10 -6 0 -1 14 11 31 21 29 21 31 4 44 -15 10
-16 16 -6 28 10 11 10 17 2 22 -7 4 -10 20 -8 36 3 16 1 29 -4 29 -5 0 -6 4
-3 10 3 6 -1 7 -9 4 -12 -5 -13 -10 -5 -25 9 -17 7 -19 -13 -15 -22 4 -23 1
-19 -40 1 -24 6 -42 10 -39 4 2 5 -9 3 -26 -2 -16 -9 -29 -15 -29 -6 0 -7 -3
-4 -6 4 -4 13 -1 22 6 8 7 15 9 16 4 0 -5 2 -19 5 -31 3 -17 -1 -23 -14 -24
-10 0 -12 -3 -4 -6 16 -6 16 -21 0 -20 -7 0 -23 -1 -36 -1 -19 -2 -21 -4 -10
-16 7 -8 15 -10 18 -5 3 4 11 4 19 0 9 -6 6 -10 -11 -14 -12 -4 -25 -2 -27 4
-2 6 -8 5 -15 -3 -6 -7 -10 -12 -9 -10 1 2 -9 14 -22 27 -26 23 -24 38 3 27
15 -5 15 -4 3 12 -14 17 -15 17 -28 0 -7 -10 -13 -22 -13 -28 0 -32 -79 -75
-81 -43 0 6 -4 3 -9 -8 -13 -31 -12 -38 8 -30 12 4 14 3 6 -5 -6 -6 -18 -8
-27 -4 -17 6 -24 24 -9 24 5 0 9 6 9 14 0 8 -6 12 -15 8 -10 -3 -13 -1 -8 6 4
7 14 12 23 12 9 0 13 6 9 15 -3 10 1 18 12 22 9 4 26 15 36 25 11 10 23 18 27
18 4 0 10 8 12 18 4 13 5 12 6 -5 0 -12 -4 -25 -9 -28 -6 -4 -7 -11 -4 -17 5
-7 1 -9 -9 -5 -10 3 -17 2 -17 -3 0 -6 -3 -9 -7 -9 -19 3 -33 -2 -33 -12 0 -5
5 -7 12 -3 8 5 9 2 5 -9 -9 -24 6 -21 21 3 7 12 17 18 22 15 6 -3 11 -1 11 4
1 6 2 14 3 19 0 4 11 21 24 37 13 17 21 24 17 17 -4 -7 0 -24 9 -37 10 -15 12
-26 6 -30 -6 -4 -8 -11 -5 -16 11 -17 21 -9 23 21 1 17 -2 30 -8 30 -5 0 -10
7 -10 15 0 8 5 15 11 15 5 0 8 4 5 8 -3 5 5 8 17 8 18 -1 21 4 19 24 -1 14 -4
33 -5 42 0 9 -6 14 -11 11 -5 -4 -7 1 -3 10 3 9 0 18 -9 21 -9 3 -12 11 -8 17
4 8 9 7 16 -2 7 -10 8 -8 3 8 -7 25 13 42 27 22 7 -11 8 -9 4 5 -7 20 11 49
25 40 5 -3 6 1 3 9 -3 8 2 17 11 21 10 3 15 12 11 21 -4 12 -2 13 14 3 17 -11
17 -13 2 -25 -15 -12 -14 -13 6 -3 25 12 29 30 7 30 -8 0 -15 5 -15 10 0 6 5
10 11 10 11 0 10 10 -6 55 -6 20 -6 20 7 0 27 -41 89 -24 72 20 -4 8 -2 15 4
15 5 0 13 -10 17 -22z m-165 8 c0 -3 -4 -8 -10 -11 -5 -3 -10 -1 -10 4 0 6 5
11 10 11 6 0 10 -2 10 -4z m130 -26 c0 -5 -4 -10 -9 -10 -6 0 -13 5 -16 10 -3
6 1 10 9 10 9 0 16 -4 16 -10z m-190 -10 c0 -5 -5 -10 -11 -10 -5 0 -7 5 -4
10 3 6 8 10 11 10 2 0 4 -4 4 -10z m1067 4 c-3 -3 -12 -4 -19 -1 -8 3 -5 6 6
6 11 1 17 -2 13 -5z m-952 -14 c-3 -5 -11 -10 -16 -10 -6 0 -7 5 -4 10 3 6 11
10 16 10 6 0 7 -4 4 -10z m979 -64 c-3 -9 -10 -16 -15 -16 -5 0 -4 9 3 20 14
22 21 20 12 -4z m216 20 c0 -3 -4 -8 -10 -11 -5 -3 -10 -1 -10 4 0 6 5 11 10
11 6 0 10 -2 10 -4z m-195 -36 c3 -5 1 -10 -4 -10 -6 0 -11 5 -11 10 0 6 2 10
4 10 3 0 8 -4 11 -10z m-35 -25 c0 -8 -2 -15 -4 -15 -2 0 -6 7 -10 15 -3 8 -1
15 4 15 6 0 10 -7 10 -15z m78 1 c-7 -8 -15 -12 -17 -11 -5 6 10 25 20 25 5 0
4 -6 -3 -14z m278 -8 c4 -7 3 -8 -4 -4 -7 4 -12 1 -12 -9 0 -9 -4 -13 -10 -10
-5 3 -10 13 -10 21 0 17 26 19 36 2z m-307 -12 c10 -12 8 -17 -8 -25 -25 -14
-31 -14 -31 0 0 5 4 8 9 5 5 -3 11 1 14 8 3 8 1 17 -6 20 -8 3 -8 5 -1 5 6 1
17 -5 23 -13z m271 -21 c0 -4 -7 -5 -15 -1 -8 3 -15 1 -15 -4 0 -5 -7 -7 -15
-4 -18 7 -15 27 5 35 14 6 40 -12 40 -26z m131 6 c-6 -10 -7 -22 -3 -26 4 -5
0 -6 -9 -3 -10 4 -15 0 -15 -11 1 -9 -3 -17 -9 -18 -17 -4 -5 41 17 60 26 22
31 22 19 -2z m29 -10 c0 -6 -4 -12 -8 -15 -5 -3 -9 1 -9 9 0 8 4 15 9 15 4 0
8 -4 8 -9z m-1595 -21 c3 -5 1 -10 -4 -10 -6 0 -11 5 -11 10 0 6 2 10 4 10 3
0 8 -4 11 -10z m1180 -32 c-5 -30 -4 -31 8 -15 8 9 17 17 21 17 11 0 6 -28 -6
-34 -10 -5 -10 -7 0 -12 17 -8 15 -25 -3 -18 -8 4 -15 1 -15 -5 0 -6 5 -11 10
-11 6 0 10 -7 10 -17 0 -14 2 -14 21 3 11 10 16 20 10 22 -19 6 -12 20 8 15
10 -3 22 0 25 6 9 15 26 14 26 -1 0 -6 -3 -8 -7 -5 -9 10 -43 -23 -43 -41 0
-11 3 -12 13 -4 15 13 60 4 51 -10 -3 -5 -12 -7 -20 -4 -9 3 -14 -1 -14 -13 0
-23 19 -32 42 -19 14 7 16 5 11 -8 -3 -9 -13 -14 -24 -11 -11 3 -16 0 -13 -8
3 -7 1 -16 -5 -20 -7 -4 -8 1 -4 12 6 16 5 17 -13 3 -17 -14 -18 -13 -7 1 10
13 10 19 -2 35 -14 19 -14 19 -15 -1 -1 -18 -1 -19 -11 -2 -5 9 -7 23 -3 30 5
9 4 9 -5 1 -10 -10 -10 -17 0 -35 17 -32 19 -87 3 -93 -7 -3 -11 0 -8 7 2 7
-3 21 -12 32 -8 11 -12 13 -8 5 5 -10 4 -12 -3 -5 -11 10 -43 113 -43 137 0
10 2 10 9 -2 6 -8 7 -18 5 -22 -3 -4 0 -8 6 -8 7 0 9 7 6 16 -3 9 -6 22 -6 30
0 8 -7 14 -15 14 -8 0 -15 7 -15 15 0 8 5 15 10 15 7 0 7 6 0 20 -9 17 -8 20
10 20 19 0 21 -4 15 -32z m100 13 c-8 -13 -35 -15 -35 -2 0 5 8 11 18 13 21 5
26 2 17 -11z m-1161 -26 c-4 -8 -8 -15 -10 -15 -2 0 -4 7 -4 15 0 8 4 15 10
15 5 0 7 -7 4 -15z m1136 0 c0 -1 -6 -8 -14 -15 -12 -9 -15 -8 -13 8 0 12 6
18 14 15 7 -3 13 -6 13 -8z m-1340 -5 c0 -5 -2 -10 -4 -10 -3 0 -8 5 -11 10
-3 6 -1 10 4 10 6 0 11 -4 11 -10z m131 3 c6 -55 4 -60 -15 -55 -12 3 -15 7
-8 10 7 2 10 8 6 13 -3 5 0 9 7 9 8 0 8 4 -1 15 -9 10 -9 15 -1 15 6 0 11 -3
12 -7z m-158 -29 c-7 -19 -10 -18 -16 5 -3 13 -1 18 9 14 7 -2 10 -11 7 -19z
m127 13 c0 -7 -5 -18 -12 -25 -9 -9 -7 -13 5 -18 23 -9 21 -23 -2 -21 -11 0
-18 4 -15 8 2 4 -4 12 -13 18 -17 10 -17 10 0 11 10 0 17 8 17 20 0 11 5 20
10 20 6 0 10 -6 10 -13z m256 -6 c-4 -5 0 -11 6 -14 7 -2 10 -8 5 -12 -10 -12
-31 11 -23 24 4 6 9 11 12 11 3 0 3 -4 0 -9z m-26 -16 c0 -8 -5 -15 -11 -15
-6 0 -8 -9 -4 -20 4 -14 2 -20 -8 -20 -13 0 -13 6 -4 35 10 35 27 48 27 20z
m1087 7 c9 -6 8 -12 -7 -25 -11 -9 -22 -12 -25 -7 -4 6 1 13 10 16 13 6 14 8
3 15 -7 5 -8 9 -3 9 6 0 16 -4 22 -8z m333 -8 c0 -8 -19 -13 -24 -6 -3 5 1 9
9 9 8 0 15 -2 15 -3z m-1524 -27 c4 -4 -2 -7 -14 -7 -12 0 -22 4 -22 9 0 10
26 9 36 -2z m164 -12 c0 -8 -4 -15 -10 -15 -5 0 -7 7 -4 15 4 8 8 15 10 15 2
0 4 -7 4 -15z m1277 -24 c0 -11 -5 -18 -9 -15 -4 3 -5 11 -1 19 7 21 12 19 10
-4z m-1637 3 c0 -8 -19 -13 -24 -6 -3 5 1 9 9 9 8 0 15 -2 15 -3z m-53 -24
c-3 -21 -17 -40 -17 -22 0 13 11 42 16 42 2 0 3 -9 1 -20z m353 11 c0 -5 -6
-14 -14 -20 -12 -10 -13 -8 -9 8 5 21 23 30 23 12z m1398 -32 c-3 -8 -7 -3
-11 10 -4 17 -3 21 5 13 5 -5 8 -16 6 -23z m-238 12 c0 -6 -4 -12 -8 -15 -5
-3 -9 1 -9 9 0 8 4 15 9 15 4 0 8 -4 8 -9z m185 -19 c-3 -3 -11 0 -18 7 -9 10
-8 11 6 5 10 -3 15 -9 12 -12z m-1395 -21 c3 -2 -3 -1 -12 2 -9 3 -19 1 -22
-6 -2 -7 -5 -1 -5 12 -1 23 5 22 39 -8z m-350 9 c0 -5 -5 -10 -11 -10 -5 0 -7
5 -4 10 3 6 8 10 11 10 2 0 4 -4 4 -10z m1783 -3 c7 4 8 0 4 -11 -4 -10 -7
-20 -7 -23 0 -2 -7 3 -16 11 -8 9 -12 21 -8 28 6 9 9 9 12 0 2 -7 9 -9 15 -5z
m-1873 -11 c0 -2 -7 -9 -15 -16 -13 -11 -14 -10 -9 4 5 14 24 23 24 12z m90
-20 c-7 -7 -13 -7 -20 0 -6 6 -3 10 10 10 13 0 16 -4 10 -10z m-56 -27 c-10
-12 -18 -24 -17 -28 0 -3 -3 -13 -8 -21 -7 -13 -8 -12 -9 3 0 9 4 17 9 17 5 0
7 10 3 22 -3 14 -2 19 6 14 7 -4 15 0 18 9 4 9 9 13 12 10 3 -2 -3 -14 -14
-26z m471 21 c-3 -5 -13 -10 -21 -10 -8 0 -14 -5 -14 -12 0 -6 -3 -8 -7 -4 -5
4 1 14 11 22 23 16 40 19 31 4z m1048 -5 c-3 -9 -8 -14 -10 -11 -3 3 -2 9 2
15 9 16 15 13 8 -4z m-1309 -31 c-21 -32 -25 -30 -11 5 6 17 14 28 19 25 4 -3
1 -16 -8 -30z m156 30 c0 -3 -7 -12 -15 -20 -16 -17 -18 -14 -9 10 6 15 24 23
24 10z m403 -11 c-10 -3 -9 -9 3 -20 14 -15 14 -17 0 -25 -9 -5 -16 -14 -16
-19 0 -6 5 -7 11 -4 6 4 5 -3 -3 -14 -13 -21 -13 -21 -18 6 -9 45 0 83 19 82
10 0 11 -2 4 -6z m-738 -13 c3 -5 -1 -10 -10 -10 -9 0 -13 5 -10 10 3 6 8 10
10 10 2 0 7 -4 10 -10z m1828 -7 c-3 -7 -9 -13 -14 -13 -5 0 -9 6 -9 13 0 8 6
14 14 14 8 0 12 -6 9 -14z m42 -2 c3 -5 0 -13 -6 -17 -7 -4 -9 -3 -5 4 3 5 0
13 -6 15 -9 4 -10 6 -1 6 6 1 14 -3 18 -8z m-1443 -23 c-7 -7 -12 -8 -12 -2 0
14 12 26 19 19 2 -3 -1 -11 -7 -17z m1028 18 c0 -2 3 -11 6 -20 4 -11 0 -16
-14 -16 -11 0 -22 8 -25 20 -4 15 0 20 14 20 10 0 19 -2 19 -4z m-1192 -37
c-3 -8 -7 -3 -11 10 -4 17 -3 21 5 13 5 -5 8 -16 6 -23z m1585 17 c6 -15 -17
-16 -30 -1 -4 4 -2 5 5 1 6 -4 12 -2 12 3 0 15 7 14 13 -3z m-1603 -15 c0 -5
-7 -14 -15 -21 -16 -14 -18 -10 -9 14 6 17 24 22 24 7z m-56 -14 c-4 -11 -44
-19 -44 -10 0 3 33 18 47 22 1 1 0 -5 -3 -12z m205 -8 c-12 -23 -11 -30 2 -26
6 1 14 -5 16 -13 4 -13 3 -13 -6 0 -6 8 -11 11 -11 5 0 -15 -20 10 -24 31 -3
14 1 20 14 20 14 0 16 -4 9 -17z m1171 11 c0 -5 -5 -10 -11 -10 -5 0 -7 5 -4
10 3 6 8 10 11 10 2 0 4 -4 4 -10z m61 -33 c-10 -9 -11 -8 -5 6 3 10 9 15 12
12 3 -3 0 -11 -7 -18z m-1330 -31 c-12 -12 -18 -26 -14 -31 5 -4 3 -5 -4 -1
-8 5 -6 16 10 40 12 18 24 29 26 24 2 -5 -6 -20 -18 -32z m1216 38 c-3 -3 -12
-4 -19 -1 -8 3 -5 6 6 6 11 1 17 -2 13 -5z m-17 -45 c0 -5 -4 -9 -10 -9 -5 0
-10 7 -10 16 0 8 5 12 10 9 6 -3 10 -10 10 -16z m44 -9 c-6 -6 -10 -2 -11 12
-2 16 1 18 10 9 7 -7 8 -14 1 -21z m-774 0 c0 -5 -5 -10 -11 -10 -5 0 -7 5 -4
10 3 6 8 10 11 10 2 0 4 -4 4 -10z m895 0 c11 -17 -5 -32 -21 -19 -8 6 -14 15
-14 20 0 12 27 11 35 -1z m-62 -15 c-3 -9 -8 -14 -10 -11 -3 3 -2 9 2 15 9 16
15 13 8 -4z"/>
<path d="M1550 860 c-8 -5 -12 -11 -10 -14 3 -2 14 2 24 10 22 15 10 19 -14 4z"/>
<path d="M557 648 c3 -17 -2 -26 -18 -33 -27 -12 -37 -35 -16 -35 9 0 17 -6
20 -12 2 -7 3 -5 2 5 -2 9 2 17 8 17 7 0 5 5 -3 10 -12 8 -11 10 8 10 25 0 31
30 8 49 -11 9 -12 7 -9 -11z"/>
<path d="M566 575 c-3 -8 -1 -15 4 -15 6 0 10 7 10 15 0 8 -2 15 -4 15 -2 0
-6 -7 -10 -15z"/>
<path d="M445 550 c-6 -9 -4 -11 5 -5 10 6 12 2 8 -16 -3 -13 -9 -32 -13 -41
-5 -13 -3 -18 9 -18 9 0 16 8 16 19 0 11 4 21 10 23 5 2 1 14 -9 27 -14 18
-20 21 -26 11z"/>
<path d="M512 519 c-19 -30 -11 -32 17 -3 15 15 18 24 9 24 -7 0 -19 -9 -26
-21z"/>
<path d="M492 465 c-16 -9 -20 -15 -12 -20 7 -4 21 2 33 14 24 23 15 26 -21 6z"/>
<path d="M460 430 c0 -5 5 -10 10 -10 6 0 10 5 10 10 0 6 -4 10 -10 10 -5 0
-10 -4 -10 -10z"/>
<path d="M350 350 c0 -5 5 -10 11 -10 8 0 8 -4 0 -14 -8 -9 -8 -16 -2 -20 11
-7 25 29 16 44 -8 13 -25 13 -25 0z"/>
<path d="M1497 323 c-4 -3 -7 -11 -7 -17 0 -6 5 -5 12 2 6 6 9 14 7 17 -3 3
-9 2 -12 -2z"/>
<path d="M1515 291 c-3 -5 -1 -12 5 -16 5 -3 10 1 10 9 0 18 -6 21 -15 7z"/>
<path d="M1883 1470 c-36 -8 -88 -39 -80 -47 3 -2 15 1 27 7 12 6 24 9 28 6 3
-3 -1 -6 -9 -6 -12 0 -11 -2 1 -11 11 -8 9 -9 -10 -3 -22 6 -23 5 -12 -9 8 -9
20 -13 28 -10 8 3 14 0 14 -6 0 -16 -26 -14 -44 4 -8 8 -19 15 -25 15 -20 0
-21 -20 -2 -37 21 -17 21 -17 -10 -49 -30 -31 -30 -32 -11 -39 13 -4 19 -12
15 -21 -3 -8 1 -14 8 -14 11 -1 10 -4 -2 -13 -10 -8 -13 -20 -8 -37 6 -22 7
-23 8 -4 1 23 24 48 34 37 4 -3 7 -15 7 -25 0 -11 7 -18 20 -18 11 0 20 7 20
15 0 8 -5 14 -11 12 -6 -1 -13 3 -16 9 -2 7 5 10 22 7 28 -6 29 -4 16 30 -7
18 -5 26 10 35 11 7 16 18 13 29 -4 12 -3 14 3 6 7 -10 17 -9 46 4 33 15 37
21 37 55 0 27 -4 38 -15 38 -8 0 -15 -4 -15 -10 0 -5 5 -10 10 -10 6 0 10 -5
10 -11 0 -6 -7 -9 -15 -5 -8 3 -15 1 -15 -5 0 -6 -4 -7 -10 -4 -5 3 -10 0 -10
-7 0 -7 -15 -20 -33 -29 -17 -9 -31 -22 -29 -29 2 -8 -3 -10 -14 -6 -13 5 -15
2 -11 -14 3 -11 1 -20 -4 -20 -5 0 -9 8 -10 18 0 11 -5 7 -13 -12 -11 -23 -14
-25 -19 -11 -9 22 -10 19 12 43 10 12 23 22 30 22 6 0 11 5 11 11 0 5 -4 7
-10 4 -5 -3 -10 -1 -10 4 0 6 19 14 43 18 36 6 39 8 17 13 -34 8 -33 41 3 58
15 7 27 17 27 23 0 10 -2 10 -47 -1z m-3 -206 c0 -8 -19 -13 -24 -6 -3 5 1 9
9 9 8 0 15 -2 15 -3z"/>
<path d="M1960 1448 c-12 -22 -12 -22 6 -6 10 10 15 20 12 24 -4 3 -12 -5 -18
-18z"/>
<path d="M1935 1310 c-8 -13 25 -13 45 0 12 8 9 10 -12 10 -15 0 -30 -4 -33
-10z"/>
<path d="M1918 1272 c-22 -4 -22 -11 -4 -37 7 -11 14 -24 15 -30 0 -5 6 -10
13 -10 7 0 13 16 14 39 1 34 0 36 -11 17 -6 -12 -14 -19 -18 -15 -4 4 -2 13 5
21 13 16 9 21 -14 15z"/>
<path d="M1715 1230 c-8 -13 3 -30 18 -29 9 0 9 2 0 5 -7 3 -9 12 -6 20 6 16
-3 19 -12 4z"/>
<path d="M1976 1223 c-3 -10 -9 -24 -12 -30 -4 -9 2 -13 18 -12 13 0 17 3 11
6 -8 3 -11 14 -7 29 7 28 -1 33 -10 7z"/>
<path d="M784 1194 c-4 -10 -9 -22 -11 -26 -2 -4 1 -9 6 -13 15 -9 35 35 22
48 -7 7 -12 5 -17 -9z"/>
<path d="M1896 1195 c3 -8 -1 -28 -9 -45 l-15 -30 26 6 c15 4 28 8 29 8 6 5
-19 76 -27 76 -5 0 -7 -7 -4 -15z"/>
<path d="M657 1177 c-3 -8 1 -14 8 -14 7 0 11 6 8 14 -3 7 -6 13 -8 13 -2 0
-5 -6 -8 -13z"/>
<path d="M1750 1175 c-8 -9 -8 -15 -2 -15 12 0 26 19 19 26 -2 2 -10 -2 -17
-11z"/>
<path d="M1790 1151 c8 -6 17 -8 21 -5 4 2 10 -4 12 -13 4 -14 5 -13 6 5 1 18
-4 22 -26 22 -21 0 -24 -3 -13 -9z"/>
<path d="M1697 1125 c-10 -14 -16 -25 -14 -25 7 0 47 37 47 44 0 13 -16 4 -33
-19z"/>
<path d="M1968 1136 c-10 -7 -18 -23 -18 -34 0 -12 -8 -23 -20 -27 -11 -3 -20
-10 -20 -15 0 -9 42 -22 49 -15 2 3 -2 5 -10 5 -9 0 -4 8 11 20 21 17 23 21
10 29 -15 10 -7 26 13 26 5 0 12 6 15 13 5 16 -8 15 -30 -2z"/>
<path d="M1818 1083 c-21 -21 -31 -24 -58 -18 -21 5 -28 10 -20 15 9 5 8 9 -4
13 -21 8 -26 -15 -7 -37 12 -15 13 -20 3 -23 -10 -4 -10 -8 -1 -19 9 -11 8
-14 -5 -14 -9 0 -16 -4 -16 -10 0 -13 6 -13 32 1 17 9 20 9 15 -4 -4 -10 0
-14 11 -13 9 2 18 11 20 22 3 16 1 17 -7 4 -9 -12 -11 -11 -11 8 0 13 -4 20
-10 17 -5 -3 -10 -1 -10 5 0 12 32 10 41 -4 10 -12 46 2 46 19 0 8 -4 12 -9 9
-17 -11 -7 9 14 25 12 10 17 21 11 24 -5 3 -21 -6 -35 -20z"/>
<path d="M1768 1073 c6 -2 18 -2 25 0 6 3 1 5 -13 5 -14 0 -19 -2 -12 -5z"/>
<path d="M1686 1052 c-2 -4 4 -8 14 -8 10 0 16 4 14 8 -3 4 -9 8 -14 8 -5 0
-11 -4 -14 -8z"/>
<path d="M1710 954 c0 -9 -5 -12 -12 -8 -7 4 -4 -2 6 -14 25 -28 28 -28 20 4
-5 19 -4 25 5 20 6 -4 11 -2 11 3 0 6 -7 11 -15 11 -8 0 -15 -7 -15 -16z"/>
</g>
</svg>
